<svg xmlns="http://www.w3.org/2000/svg" viewBox="0 0 64 64">
  <defs>
    <linearGradient id="grad1" x1="0%" y1="0%" x2="100%" y2="100%">
      <stop offset="0%" style="stop-color:#4F46E5;stop-opacity:1" />
      <stop offset="100%" style="stop-color:#7C3AED;stop-opacity:1" />
    </linearGradient>
  </defs>
  
  <!-- Calendar background -->
  <rect x="8" y="12" width="48" height="44" rx="6" ry="6" fill="url(#grad1)" />
  <rect x="12" y="20" width="40" height="32" rx="2" ry="2" fill="white" />
  
  <!-- Calendar header -->
  <rect x="8" y="12" width="48" height="12" rx="6" ry="6" fill="url(#grad1)" />
  <rect x="8" y="18" width="48" height="6" fill="url(#grad1)" />
  
  <!-- Calendar rings -->
  <circle cx="20" cy="8" r="2" fill="none" stroke="url(#grad1)" stroke-width="2" />
  <circle cx="44" cy="8" r="2" fill="none" stroke="url(#grad1)" stroke-width="2" />
  <rect x="18" y="4" width="4" height="8" fill="url(#grad1)" />
  <rect x="42" y="4" width="4" height="8" fill="url(#grad1)" />
  
  <!-- Calendar grid dots representing events -->
  <circle cx="18" cy="28" r="1.5" fill="url(#grad1)" />
  <circle cx="25" cy="28" r="1.5" fill="url(#grad1)" />
  <circle cx="39" cy="28" r="1.5" fill="url(#grad1)" />
  <circle cx="46" cy="28" r="1.5" fill="url(#grad1)" />
  
  <circle cx="18" cy="36" r="1.5" fill="url(#grad1)" />
  <circle cx="32" cy="36" r="1.5" fill="url(#grad1)" />
  <circle cx="46" cy="36" r="1.5" fill="url(#grad1)" />
  
  <circle cx="25" cy="44" r="1.5" fill="url(#grad1)" />
  <circle cx="39" cy="44" r="1.5" fill="url(#grad1)" />
  
  <!-- Special event indicator -->
  <circle cx="32" cy="28" r="3" fill="#F59E0B" />
  <circle cx="32" cy="28" r="1.5" fill="white" />
</svg>